<svg width="561" height="950" viewBox="0 0 561 950" fill="none" xmlns="http://www.w3.org/2000/svg">
<g opacity="0.1">
<path fill-rule="evenodd" clip-rule="evenodd" d="M498 53.7372C837 224.737 869.395 -87.6791 1016.76 180.737C1164.12 449.153 774 573.737 1048 752.737C1322 931.737 761 1052.74 566 824.737C371 596.737 173.448 830.831 34.8732 734.663C-103.702 638.495 234 386.737 93.0001 275.737C-47.9999 164.737 159 -117.263 498 53.7372Z" fill="url(#paint0_linear_82_494)"/>
<mask id="mask0_82_494" style="mask-type:luminance" maskUnits="userSpaceOnUse" x="0" y="0" width="1122" height="950">
<path fill-rule="evenodd" clip-rule="evenodd" d="M498 53.7372C837 224.737 869.395 -87.6791 1016.76 180.737C1164.12 449.153 774 573.737 1048 752.737C1322 931.737 761 1052.74 566 824.737C371 596.737 173.448 830.831 34.8732 734.663C-103.702 638.495 234 386.737 93.0001 275.737C-47.9999 164.737 159 -117.263 498 53.7372Z" fill="white"/>
</mask>
<g mask="url(#mask0_82_494)">
<ellipse cx="724.83" cy="566.017" rx="189.83" ry="278.28" fill="#673AB7"/>
<ellipse cx="558.781" cy="471.084" rx="215.781" ry="489.347" transform="rotate(41 558.781 471.084)" fill="url(#paint1_linear_82_494)"/>
<ellipse cx="353.328" cy="429.752" rx="215.781" ry="489.347" transform="rotate(41 353.328 429.752)" fill="#B2EBF2"/>
<ellipse cx="219.501" cy="287.501" rx="137.8" ry="289.467" transform="rotate(41 219.501 287.501)" fill="url(#paint2_linear_82_494)"/>
<ellipse cx="128" cy="163.237" rx="118" ry="207" transform="rotate(41 128 163.237)" fill="white"/>
<ellipse cx="393.333" cy="824.653" rx="202.333" ry="183.915" transform="rotate(92 393.333 824.653)" fill="#E91E63"/>
</g>
</g>
<defs>
<linearGradient id="paint0_linear_82_494" x1="536.552" y1="-687.751" x2="-406.173" y2="715.269" gradientUnits="userSpaceOnUse">
<stop stop-color="#00BCD4"/>
<stop offset="1" stop-color="#B2EBF2"/>
<stop offset="1" stop-color="#D1C4E9"/>
</linearGradient>
<linearGradient id="paint1_linear_82_494" x1="291.411" y1="-46.1696" x2="-12.1972" y2="910.646" gradientUnits="userSpaceOnUse">
<stop stop-color="#00BCD4"/>
<stop offset="1" stop-color="#673AB7"/>
</linearGradient>
<linearGradient id="paint2_linear_82_494" x1="189.173" y1="-290.235" x2="-219.515" y2="28.6831" gradientUnits="userSpaceOnUse">
<stop stop-color="#00BCD4"/>
<stop offset="1" stop-color="#673AB7"/>
</linearGradient>
</defs>
</svg>
