<svg width="29" height="31" viewBox="0 0 29 31" fill="none" xmlns="http://www.w3.org/2000/svg">
<path fill-rule="evenodd" clip-rule="evenodd" d="M25.5119 16.6086C25.5858 16.1609 25.5858 15.6379 25.5858 15.1151C25.5858 14.5922 25.5119 14.1444 25.5119 13.6215L28.6257 11.1574C28.9227 10.9335 28.9965 10.5602 28.7742 10.1868L25.8081 5.03388C25.6596 4.73489 25.215 4.58619 24.9181 4.73489L21.2104 6.22847C20.4689 5.63121 19.5796 5.10827 18.6897 4.73489L18.1705 0.777313C18.0966 0.479042 17.7997 0.180054 17.4289 0.180054H11.4967C11.126 0.180054 10.8291 0.479042 10.7552 0.777313L10.1621 4.73489C9.27209 5.10827 8.45668 5.63114 7.64058 6.22847L3.93295 4.73489C3.56216 4.58619 3.19137 4.73489 3.04296 5.03388L0.0768454 10.1868C-0.0708713 10.485 0.00288249 10.9335 0.225259 11.1575L3.41389 13.6215C3.41389 14.1444 3.34 14.5922 3.34 15.1151C3.34 15.6379 3.41389 16.0857 3.41389 16.6086L0.300059 19.0727C0.00309163 19.2966 -0.0706621 19.6699 0.151575 20.0433L3.11769 25.1962C3.26617 25.4952 3.71079 25.6439 4.00768 25.4952L7.71538 24.0016C8.45689 24.5989 9.34619 25.1218 10.2361 25.4952L10.8292 29.4528C10.9037 29.8262 11.1999 30.0501 11.5707 30.0501H17.503C17.8737 30.0501 18.1706 29.7511 18.2445 29.4528L18.8383 25.4952C19.7276 25.1218 20.5437 24.599 21.3591 24.0016L25.0668 25.4952C25.4375 25.6439 25.8083 25.4952 25.9568 25.1962L28.9229 20.0433C29.0713 19.7451 28.9968 19.2966 28.7744 19.0726L25.5119 16.6086ZM14.4629 20.3423C11.5706 20.3423 9.27222 18.0278 9.27222 15.1151C9.27222 12.2024 11.5706 9.88778 14.4629 9.88778C17.3551 9.88778 19.6536 12.2024 19.6536 15.1151C19.6536 18.0278 17.3551 20.3423 14.4629 20.3423Z" fill="white" fill-opacity="0.83"/>
</svg>
